<?xml version="1.0" encoding="utf-8"?>
<!-- Generator: Adobe Illustrator 18.1.1, SVG Export Plug-In . SVG Version: 6.00 Build 0)  -->
<svg version="1.1" id="RAW_ICONS_-_SQUARE__x2F__ROUNDED__x2F__CIRCLE"
	 xmlns="http://www.w3.org/2000/svg" xmlns:xlink="http://www.w3.org/1999/xlink" x="0px" y="0px" viewBox="54 0 144 144"
	 enable-background="new 54 0 144 144" xml:space="preserve">
<path fill="#066C9A" d="M53.1,0v144h144V0H53.1z M105.5,106.4H90V60h15.4V106.4z M97.8,53.6h-0.1c-5.2,0-8.5-3.6-8.5-8
	c0-4.6,3.5-8,8.7-8c5.3,0,8.5,3.5,8.6,8C106.5,50.1,103.1,53.6,97.8,53.6z M161.1,106.4h-15.4V81.6c0-6.2-2.2-10.5-7.8-10.5
	c-4.3,0-6.8,2.9-7.9,5.7c-0.4,1-0.5,2.4-0.5,3.8v25.9H114c0,0,0.2-42.1,0-46.4h15.4v6.6c2.1-3.2,5.7-7.7,13.9-7.7
	c10.2,0,17.8,6.6,17.8,20.9V106.4z"/>
<path fill="#36609F" d="M-376.1,0v144h144V0H-376.1z M-288.8,72h-9.9c0,16.2,0,36,0,36h-14.9c0,0,0-19.8,0-36h-7.2V59.4h7.2v-8.1
	c0-5.9,2.7-15.3,15.3-15.3h11.2v12.2c0,0-6.8,0-8.1,0s-3.1,0.5-3.1,3.6v7.6h11.2L-288.8,72z"/>
<path fill="#2CAAE1" d="M-161,0v144h144V0H-161z M-60.2,57.1c0,0.5,0,1.4,0,1.8c0,19.3-14.8,41.8-41.9,41.8
	c-8.5,0-16.2-2.2-22.5-6.8c1.3,0,2.2,0,3.6,0c6.8,0,13.5-2.2,18.5-6.3c-6.3,0-11.7-4.5-14-10.3c0.9,0,1.8,0.5,2.7,0.5
	c1.3,0,2.7,0,4-0.5c-6.8-1.3-11.7-7.2-11.7-14.4l0,0c1.8,0.9,4,1.8,6.8,1.8c-4.1-2.7-6.8-7.2-6.8-12.2c0-2.7,0.9-5.4,1.8-7.6
	c7.2,9,18,14.9,30.6,15.3c-0.4-0.9-0.4-2.2-0.4-3.1c0-8.1,6.7-14.9,14.8-14.9c4.1,0,8.1,1.8,10.8,4.5c3.2-0.5,6.8-1.8,9.5-3.6
	c-0.9,3.6-3.6,6.3-6.3,8.1c3.2-0.5,5.8-1.4,8.5-2.2C-54.8,52.6-57.5,55.4-60.2,57.1z"/>
</svg>
