<svg xmlns="http://www.w3.org/2000/svg" viewBox="0 0 256 256"><defs><style>.c1{fill:#304e62} .c2{fill:#e4f1fe}</style></defs><circle cx="128" cy="128" r="128" class="c1"/><path d="M77.11 161.947l-6.174 3.03A48.93 48.93 0 0 0 78.7 180.9c.65-.164-5.79 7.517-10.132 15.862.01.083 9.043 7.95 9.043 7.95l9.69-13.292a32.4 32.4 0 0 0 12.2 9.073c-.92.03 6.24-4.55 6.24-4.55s-5.07-9.785-9.9-12.883c.29.3 4.19-4.883 8.95-13.2-.37-.962-5.73-5.59-5.73-5.59s-9.96 7.03-12.97 9.163c-2.01-.675-8.97-11.486-8.97-11.486zm87.696-111.382l-6.106 3.16a48.92 48.92 0 0 0 8.1 15.75c.648-.178-5.627 7.638-9.79 16.075.01.082 9.21 7.756 9.21 7.756l9.408-13.493a32.392 32.392 0 0 0 12.4 8.81c-.92.048 6.14-4.683 6.14-4.683s-5.278-9.675-10.176-12.668c.295.294 4.077-4.97 8.665-13.385-.39-.954-5.846-5.466-5.846-5.466s-9.81 7.24-12.77 9.44c-2.03-.63-9.23-11.29-9.23-11.29zm14.77 136.135c-10.826 1.337-20.864-7.8-22.42-20.406s5.956-23.91 16.78-25.248 20.864 7.8 22.42 20.406-5.956 23.91-16.78 25.248zm-2.322-39.022c-7.127-.243-13.16 6.987-13.47 16.15s5.21 16.788 12.338 17.03 13.158-6.986 13.47-16.15-5.21-16.787-12.338-17.03zM98.54 92.508c-.43 12.7-9.618 22.688-20.52 22.318s-19.39-10.96-18.958-23.656 9.616-22.687 20.518-22.318 19.39 10.96 18.96 23.656zM81.82 75.92c-7-1.353-14.088 4.848-15.827 13.85s2.527 17.4 9.53 18.748 14.087-4.847 15.827-13.85-2.528-17.395-9.53-18.748zm-36.6 63.53s24.35-11.57 73.49-20.915c.962.3-1.076-41.015 8.8-79.68.51-1.993 10.762-.572 10.762-.572s-6.187 71.28-4.457 78.136c.658 2.6 39.813-8.22 75.577-6.06 2.285.13-2.43 8.86-2.43 8.86l-72.582 11.99s5.093 54.92 6.606 82.06c.056 1-9.465 4.94-9.465 4.94s-8.31-25.095-11.62-85.975c-.06-1.08-38.742 7.65-77.92 17.684-.69.173 3.24-10.476 3.24-10.476z" class="c2"/></svg>